PathFileType	4	(X/Y/Z)	/Users/itak/Documents/Research/Walk-IL/dataset/trc/00266_00009.trc
DataRate	CameraRate	NumFrames	NumMarkers	Units	OrigDataRate	OrigDataStartFrame	OrigNumFrames
100.000000	100.000000	4	54	mm	100.000000	315	421
Frame#	Time	RPSI			LPSI			L3			STRN			T10			C7			CLAV			RBAK			LBAK			LSHO			LUPA			LAEL			LAOL			LWTS			LWPS			LFRA			LIFD			LHPS			LHTS			RSHO			RUPA			RAEL			RAOL			RWPS			RFRA			RIFD			RHTS			RHPS			RBHD			LFHD			RFHD			LBHD			LHIP			RHIP			RASI			LASI			LKNE			LTHI			LANK			LTIP			LTOE			LMT1			LMT5			LHEE			RKNE			RTHI			RANK			RTIP			RTOE			RMT1			RMT5			RWTS			RHEE			*53			
		X1	Y1	Z1	X2	Y2	Z2	X3	Y3	Z3	X4	Y4	Z4	X5	Y5	Z5	X6	Y6	Z6	X7	Y7	Z7	X8	Y8	Z8	X9	Y9	Z9	X10	Y10	Z10	X11	Y11	Z11	X12	Y12	Z12	X13	Y13	Z13	X14	Y14	Z14	X15	Y15	Z15	X16	Y16	Z16	X17	Y17	Z17	X18	Y18	Z18	X19	Y19	Z19	X20	Y20	Z20	X21	Y21	Z21	X22	Y22	Z22	X23	Y23	Z23	X24	Y24	Z24	X25	Y25	Z25	X26	Y26	Z26	X27	Y27	Z27	X28	Y28	Z28	X29	Y29	Z29	X30	Y30	Z30	X31	Y31	Z31	X32	Y32	Z32	X33	Y33	Z33	X34	Y34	Z34	X35	Y35	Z35	X36	Y36	Z36	X37	Y37	Z37	X38	Y38	Z38	X39	Y39	Z39	X40	Y40	Z40	X41	Y41	Z41	X42	Y42	Z42	X43	Y43	Z43	X44	Y44	Z44	X45	Y45	Z45	X46	Y46	Z46	X47	Y47	Z47	X48	Y48	Z48	X49	Y49	Z49	X50	Y50	Z50	X51	Y51	Z51	X52	Y52	Z52	X53	Y53	Z53	X54	Y54	Z54	

316	3.15	-86.01564788818359	1030.500366210938	-240.2839965820312	-206.1139373779297	1033.986450195312	-252.7148742675781	-159.7568206787109	1115.7490234375	-240.0308990478516	-146.6935729980469	1304.604858398438	-486.9655456542969	-150.1869812011719	1241.084716796875	-235.6173095703125	-148.3412170410156	1504.4716796875	-294.3446044921875	-143.9688720703125	1421.605590820312	-459.4951477050781	-79.46731567382812	1362.256103515625	-219.1161499023438	-259.3099670410156	1467.943359375	-277.75048828125	-313.3214111328125	1470.786987304688	-367.8318786621094	-394.9193420410156	1354.1162109375	-336.9842834472656	-428.9804382324219	1145.11376953125	-340.0234375	-374.6450805664062	1128.066040039062	-272.6311340332031	-386.7392272949219	913.0194702148438	-442.2201843261719	-463.1569213867188	896.67919921875	-408.4464111328125	-448.236083984375	1038.621948242188	-361.4650573730469	-396.5632629394531	718.1510009765625	-449.3777770996094	-460.6062927246094	808.1273193359375	-427.7803039550781	-411.2833862304688	813.1912841796875	-474.6692810058594	21.66102600097656	1461.522583007812	-347.8005981445312	86.28065490722656	1395.708984375	-328.0647888183594	129.5824890136719	1116.554809570312	-304.8797912597656	38.83778762817383	1107.514770507812	-277.9435119628906	165.4420318603516	888.6506958007812	-384.238525390625	146.1946563720703	1048.807495117188	-329.4817810058594	101.7207107543945	706.4522094726562	-452.2178649902344	121.6642379760742	778.3457641601562	-477.2057189941406	171.2459869384766	780.4341430664062	-423.450439453125	-92.30787658691406	1669.93994140625	-355.8784484863281	-186.7949829101562	1685.79248046875	-562.049072265625	-86.23851776123047	1684.87939453125	-561.3900146484375	-225.0463714599609	1670.963256835938	-402.4473571777344	-334.2701721191406	978.6649169921875	-371.6641540527344	28.77192687988281	993.3751220703125	-328.4634094238281	nan	nan	nan	-276.2217712402344	1023.88671875	-463.0307006835938	-266.3025207519531	512.9310913085938	-513.7044067382812	-301.7574157714844	649.293701171875	-474.112060546875	-239.0704345703125	32.96874618530273	-467.7981262207031	-260.3719787597656	279.8287658691406	-491.2465209960938	-171.6844940185547	38.17565155029297	-681.6663818359375	-134.5158538818359	34.42098236083984	-609.2140502929688	-250.5488586425781	36.06546401977539	-596.8380737304688	-190.1103973388672	37.76595687866211	-405.2130737304688	1.935592412948608	502.9906311035156	-366.0684204101562	36.92561721801758	770.5712280273438	-387.5578002929688	-54.5338249206543	79.42377471923828	-93.82685852050781	-16.11494636535645	386.0997314453125	-330.2218322753906	-74.67832183837891	39.87983322143555	-294.1877136230469	-124.1166839599609	45.52045059204102	-249.2145080566406	-19.06095695495605	40.76192092895508	-190.9724731445312	103.7255172729492	899.3865966796875	-440.6961364746094	-116.5105895996094	107.0340576171875	-41.61468505859375	nan	nan	nan	
317	3.16	-87.20677185058594	1030.5830078125	-244.2728424072266	-207.2162017822266	1034.794189453125	-257.2587585449219	-161.0713806152344	1116.262329101562	-244.5247192382812	-146.9762268066406	1305.176635742188	-491.4239196777344	-151.4483947753906	1241.376342773438	-240.2166900634766	-149.4399261474609	1504.865234375	-298.625244140625	-144.5189819335938	1422.151245117188	-463.8883361816406	-80.55577850341797	1362.74609375	-223.377197265625	-260.40087890625	1468.171142578125	-282.3907470703125	-314.1116943359375	1471.073974609375	-372.6168823242188	-395.9385070800781	1354.45556640625	-342.2471313476562	-430.4237060546875	1145.575073242188	-346.0848388671875	-376.3091125488281	1128.069580078125	-278.6936950683594	-388.1949157714844	914.3619995117188	-450.0343627929688	-464.6756896972656	897.6674194335938	-416.4635314941406	-449.86279296875	1039.241577148438	-368.3525085449219	-398.1746215820312	719.6258544921875	-459.5556640625	-462.1661987304688	809.3648681640625	-436.8152465820312	-412.9082641601562	814.9913940429688	-483.6932067871094	20.80715370178223	1462.23486328125	-351.7425842285156	85.41384124755859	1396.499755859375	-331.8898620605469	128.8579406738281	1117.389526367188	-308.5142517089844	38.1253547668457	1108.387939453125	-281.5317993164062	164.8252716064453	889.3667602539062	-387.4810180664062	145.4364929199219	1049.5986328125	-333.0287475585938	100.5110549926758	706.62353515625	-453.6444091796875	120.3377456665039	778.281494140625	-479.3111877441406	170.2794647216797	780.807373046875	-425.8756103515625	-93.65361022949219	1669.838623046875	-358.5607604980469	-187.4405670166016	1687.909423828125	-564.844970703125	-86.89620208740234	1687.123779296875	-563.8331298828125	-226.2425842285156	1671.196044921875	-405.5636291503906	-335.331787109375	979.7509155273438	-376.3699035644531	27.40261650085449	993.0702514648438	-332.331298828125	nan	nan	nan	-276.7521057128906	1024.4697265625	-467.6272277832031	-266.8291625976562	512.6827392578125	-514.5657958984375	-302.352294921875	649.6017456054688	-476.4253845214844	-239.0967102050781	32.89222717285156	-467.7787170410156	-260.8437805175781	279.6614685058594	-491.5940551757812	-171.6796722412109	38.23614120483398	-681.6021118164062	-134.5229339599609	34.42609405517578	-609.1847534179688	-250.5564880371094	36.05073165893555	-596.8186645507812	-190.1976318359375	37.71428298950195	-405.1697387695312	3.537578105926514	502.6118774414062	-377.8840026855469	36.08013916015625	770.772216796875	-394.2322692871094	-53.06129455566406	85.41513824462891	-96.89002227783203	-14.54864120483398	386.3818359375	-341.076416015625	-73.90032958984375	40.06354141235352	-295.5338745117188	-123.5687866210938	47.32623672485352	-250.7528991699219	-18.41732406616211	43.50473022460938	-192.9655914306641	102.8930435180664	899.795654296875	-443.7668151855469	-114.5855331420898	114.9182815551758	-45.39160537719727	nan	nan	nan	
318	3.17	-88.30600738525391	1030.616943359375	-248.0930633544922	-208.1935882568359	1035.527587890625	-261.5265502929688	-162.3199615478516	1116.72705078125	-248.8285980224609	-147.2187194824219	1305.63037109375	-495.7572326660156	-152.6852264404297	1241.669555664062	-244.6889495849609	-150.5197448730469	1505.228271484375	-302.8664855957031	-145.0022735595703	1422.59521484375	-468.205810546875	-81.64405822753906	1363.210327148438	-227.521728515625	-261.4971313476562	1468.392211914062	-287.0216064453125	-314.8543090820312	1471.30615234375	-377.4300537109375	-396.94091796875	1354.755493164062	-347.5637817382812	-431.8813171386719	1146.005004882812	-352.1617126464844	-378.0225830078125	1128.042846679688	-284.7310791015625	-389.6354675292969	915.6766967773438	-457.80029296875	-466.1607971191406	898.6279907226562	-424.4674682617188	-451.49267578125	1039.8349609375	-375.2443237304688	-399.7767944335938	721.1112670898438	-469.7811279296875	-463.693115234375	810.6031494140625	-445.8594360351562	-414.4913635253906	816.8057861328125	-492.7044372558594	19.98554229736328	1462.8623046875	-355.5872802734375	84.56581115722656	1397.208740234375	-335.5945739746094	128.2160949707031	1118.140502929688	-312.0312805175781	37.46484375	1109.150268554688	-285.0359497070312	164.2506713867188	890.06982421875	-390.8649597167969	144.7572326660156	1050.316040039062	-336.5240783691406	99.34457397460938	706.857177734375	-455.3450622558594	119.0534896850586	778.3142700195312	-481.6505737304688	169.3680114746094	781.2218017578125	-428.5407104492188	-94.93609619140625	1669.63623046875	-361.2095642089844	-188.0341491699219	1689.9365234375	-567.5859375	-87.5115966796875	1689.27392578125	-566.2100830078125	-227.3689422607422	1671.33837890625	-408.6500549316406	-336.4170837402344	980.6681518554688	-380.6658935546875	26.14035034179688	992.729248046875	-336.0550842285156	nan	nan	nan	-277.3165283203125	1024.970092773438	-471.9673461914062	-267.3666076660156	512.4369506835938	-515.4080200195312	-302.9286804199219	649.872802734375	-478.6741943359375	-239.1142120361328	32.82360076904297	-467.7577209472656	-261.2095947265625	279.4625549316406	-491.9101257324219	-171.6870422363281	38.29144668579102	-681.5443115234375	-134.5270690917969	34.42618942260742	-609.1583251953125	-250.5624847412109	36.03848266601562	-596.8015747070312	-190.2798767089844	37.66518402099609	-405.1287841796875	5.081877708435059	502.3899841308594	-389.5387878417969	35.24249649047852	771.0081176757812	-400.8150024414062	-51.47867202758789	91.63116455078125	-100.3782348632812	-13.0814037322998	386.8358154296875	-351.9602355957031	-72.88607788085938	40.43501663208008	-297.3879699707031	-122.7419662475586	49.46540069580078	-252.6983337402344	-17.50972557067871	46.71990585327148	-195.3107604980469	102.0928421020508	900.251953125	-446.9474487304688	-112.5509643554688	122.8140869140625	-49.55233001708984	nan	nan	nan	
319	3.18	-89.27998352050781	1030.61376953125	-251.7614593505859	-209.0307464599609	1036.172241210938	-265.5202331542969	-163.4700317382812	1117.144653320312	-252.9403381347656	-147.4338073730469	1305.97509765625	-499.9589538574219	-153.8737182617188	1241.975341796875	-249.0236206054688	-151.5735168457031	1505.56884765625	-307.058837890625	-145.4236297607422	1422.947509765625	-472.4382934570312	-82.72086334228516	1363.657348632812	-231.5438385009766	-262.5925598144531	1468.614868164062	-291.6270446777344	-315.5449523925781	1471.495971679688	-382.248046875	-397.9199829101562	1355.02490234375	-352.9247131347656	-433.342041015625	1146.408447265625	-358.274169921875	-379.7780151367188	1127.991577148438	-290.7554626464844	-391.0447692871094	916.9503173828125	-465.505126953125	-467.5980224609375	899.5645751953125	-432.4564208984375	-453.1095581054688	1040.407958984375	-382.1530456542969	-401.3664855957031	722.5965576171875	-480.0046081542969	-465.1785278320312	811.8401489257812	-454.8919067382812	-416.0064697265625	818.6130981445312	-501.6652526855469	19.19297218322754	1463.408447265625	-359.3421325683594	83.74400329589844	1397.836547851562	-339.1880187988281	127.6387634277344	1118.805297851562	-315.4296264648438	36.8400764465332	1109.802856445312	-288.4607543945312	163.7046813964844	890.7409057617188	-394.3440551757812	144.1470642089844	1050.95556640625	-339.9486999511719	98.25202941894531	707.1663818359375	-457.4052429199219	117.8644638061523	778.4686279296875	-484.2539367675781	168.5240936279297	781.673095703125	-431.4319152832031	-96.14731597900391	1669.347534179688	-363.8367004394531	-188.5748291015625	1691.862426757812	-570.2857666015625	-88.08194732666016	1691.31591796875	-568.5360107421875	-228.4221496582031	1671.406005859375	-411.7152709960938	-337.5179138183594	981.386474609375	-384.5335388183594	25.00363922119141	992.3865356445312	-339.6758422851562	nan	nan	nan	-277.9207153320312	1025.3955078125	-476.0471496582031	-267.9069519042969	512.1896362304688	-516.250244140625	-303.4854736328125	650.09423828125	-480.8641662597656	-239.1225738525391	32.76437759399414	-467.7365112304688	-261.4585266113281	279.2356872558594	-492.2094116210938	-171.7040405273438	38.34387588500977	-681.4918823242188	-134.5272979736328	34.42242050170898	-609.1338500976562	-250.5644836425781	36.03315734863281	-596.787109375	-190.3539428710938	37.61916351318359	-405.0909729003906	6.511214256286621	502.3631286621094	-400.9468688964844	34.4864616394043	771.3088989257812	-407.2400207519531	-49.81033325195312	97.91449737548828	-104.3423004150391	-11.74460887908936	387.4712219238281	-362.7692565917969	-71.59700775146484	41.08974456787109	-299.873291015625	-121.5950927734375	51.94490814208984	-255.1831817626953	-16.29503631591797	50.3503532409668	-198.1093292236328	101.3448867797852	900.75341796875	-450.22705078125	-110.4649887084961	130.5038757324219	-54.11683654785156	nan	nan	nan	
